<?xml version="1.0" standalone="no"?><!DOCTYPE svg PUBLIC "-//W3C//DTD SVG 1.1//EN" "http://www.w3.org/Graphics/SVG/1.1/DTD/svg11.dtd"><svg t="1590046687490" class="icon" viewBox="0 0 1024 1024" version="1.1" xmlns="http://www.w3.org/2000/svg" p-id="1290" xmlns:xlink="http://www.w3.org/1999/xlink" width="200" height="200"><defs><style type="text/css"></style></defs><path d="M126.373 96.666l0 0 0 0zM892.107 319.978q18.694 26.633 8.411 60.266l-128.472 423.275q-8.882 29.904-35.738 50.22t-57.231 20.328l-431.215 0q-35.974 0-69.383-24.998t-46.492-61.431q-11.212-31.304-0.929-59.337 0-1.87 1.4-12.609t1.87-17.28q0.471-3.742-1.4-10.047t-1.4-9.105q0.929-5.14 3.742-9.811t7.705-10.975 7.705-10.976q10.739-17.752 21.022-42.75t14.01-42.75q1.4-4.671 0.235-14.01t-0.235-13.082q1.4-5.14 7.941-13.082t7.941-10.739q9.811-16.822 19.623-42.984t11.681-42.043q0.471-4.199-1.164-14.952t0.235-13.082q1.87-6.069 10.283-14.245t10.283-10.517q8.882-12.153 19.858-39.48t12.846-45.079q0.472-3.742-1.4-11.917t-0.929-12.375q0.929-3.742 4.199-8.411t8.411-10.739 7.941-9.811q3.742-5.612 7.705-14.245t7.012-16.352 7.469-16.823 9.105-14.952 12.375-10.975 16.822-5.377 22.186 2.565l-0.471 1.4q17.753-4.199 23.821-4.199l355.539 0q34.573 0 53.255 26.164t8.411 60.737l-128.015 423.275q-16.822 55.597-33.41 71.711t-60.031 16.117l-405.995 0q-12.609 0-17.752 7.012-5.14 7.469-0.471 20.093 11.212 32.703 67.278 32.703l431.215 0q13.553 0 26.163-7.247t16.352-19.387l140.153-461.119q3.27-10.282 2.342-26.633 17.752 7.012 27.562 20.093zM395.014 320.921q-1.87 6.069 0.929 10.517t9.34 4.435l284.049 0q6.069 0 11.917-4.435t7.705-10.517l9.811-29.904q1.87-6.069-0.929-10.517t-9.34-4.435l-284.049 0q-6.069 0-11.918 4.435t-7.705 10.517zM356.228 440.524q-1.87 6.069 0.929 10.517t9.34 4.435l284.049 0q6.069 0 11.917-4.435t7.705-10.517l9.811-29.904q1.87-6.069-0.929-10.517t-9.34-4.435l-284.049 0q-6.069 0-11.917 4.435t-7.705 10.517z" p-id="1291"></path></svg>